<svg width="56" height="56" viewBox="0 0 56 56" fill="none" xmlns="http://www.w3.org/2000/svg">
<path fill-rule="evenodd" clip-rule="evenodd" d="M27.689 5.91138H28.3113V20.0669H27.689V5.91138ZM25.6668 7.6225H26.289V20.0669H25.6668V7.6225ZM11.5113 9.17804H12.1335V20.0669H11.5113V9.17804ZM8.089 12.4447H7.4668V20.0669H8.089V12.4447ZM8.089 27.378H7.4668V50.0893H8.089V27.378ZM9.489 12.4447H10.1113V20.0669H9.489V12.4447ZM10.1113 27.378H9.489V50.0893H10.1113V27.378ZM12.1335 27.378H11.5113V50.0893H12.1335V27.378ZM13.5335 9.17804H14.1557V20.0669H13.5335V9.17804ZM14.1557 27.378H13.5335V50.0893H14.1557V27.378ZM15.5557 9.17804H16.1779V20.0669H15.5557V9.17804ZM16.1779 27.378H15.5557V50.0893H16.1779V27.378ZM17.5779 12.4447H18.2001V20.0669H17.5779V12.4447ZM18.2001 27.378H17.5779V50.0893H18.2001V27.378ZM19.6001 12.4447H20.2223V20.0669H19.6001V12.4447ZM20.2223 27.378H19.6001V50.0893H20.2223V27.378ZM21.6223 10.8892H22.2446V20.0669H21.6223V10.8892ZM22.2446 27.378H21.6223V50.0893H22.2446V27.378ZM23.6446 9.17804H24.2668V20.0669H23.6446V9.17804ZM24.2668 27.378H23.6446V50.0893H24.2668V27.378ZM26.289 27.378H25.6668V50.0893H26.289V27.378ZM28.3113 27.378H27.689V50.0893H28.3113V27.378ZM29.7113 7.6225H30.3335V20.0669H29.7113V7.6225ZM30.3335 27.378H29.7113V50.0893H30.3335V27.378ZM31.7335 9.17804H32.3557V20.0669H31.7335V9.17804ZM32.3557 27.378H31.7335V50.0893H32.3557V27.378ZM33.7557 10.8892H34.3779V20.0669H33.7557V10.8892ZM34.3779 27.378H33.7557V50.0893H34.3779V27.378ZM35.7779 12.4447H36.4001V20.0669H35.7779V12.4447ZM36.4001 27.378H35.7779V50.0893H36.4001V27.378ZM37.8001 12.4447H38.4223V20.0669H37.8001V12.4447ZM38.4223 27.378H37.8001V50.0893H38.4223V27.378ZM39.8223 9.17804H40.4446V20.0669H39.8223V9.17804ZM40.4446 27.378H39.8223V50.0893H40.4446V27.378ZM41.8446 9.17804H42.4668V20.0669H41.8446V9.17804ZM42.4668 27.378H41.8446V50.0893H42.4668V27.378ZM43.8668 9.17804H44.489V20.0669H43.8668V9.17804ZM44.489 27.378H43.8668V50.0893H44.489V27.378ZM45.889 12.4447H46.5113V20.0669H45.889V12.4447ZM46.5113 27.378H45.889V50.0893H46.5113V27.378ZM47.9114 12.4447H48.5335V20.0669H47.9114V12.4447ZM48.5335 27.378H47.9114V50.0893H48.5335V27.378Z" fill="#C00427"/>
</svg>
