<svg width="44" height="44" viewBox="0 0 44 44" fill="none" xmlns="http://www.w3.org/2000/svg">
<path d="M21.3765 7.57703C21.7277 7.25227 22.2713 7.25237 22.6226 7.57703L34.2114 17.786C34.6065 18.1341 34.8335 18.6355 34.8335 19.162V34.8339C34.8332 35.8462 34.0119 36.6669 32.9995 36.6669H10.9995C9.9873 36.6667 9.16676 35.8461 9.1665 34.8339V19.162C9.1665 18.6356 9.39267 18.1341 9.7876 17.786L21.3765 7.57703ZM17.646 29.3339C17.0132 29.3339 16.4995 29.8465 16.4995 30.4794C16.4996 31.1121 17.0132 31.6249 17.646 31.6249H26.354C26.9868 31.6249 27.4994 31.1121 27.4995 30.4794C27.4995 29.8465 26.9868 29.3339 26.354 29.3339H17.646Z" fill="url(#paint0_radial_10946_735)"/>
<defs>
<radialGradient id="paint0_radial_10946_735" cx="0" cy="0" r="1" gradientUnits="userSpaceOnUse" gradientTransform="translate(22.0243 50.0002) rotate(-90) scale(26 22.7502)">
<stop stop-color="#007FA9"/>
<stop offset="1" stop-color="#262626"/>
</radialGradient>
</defs>
</svg>
