<svg width="24" height="24" viewBox="0 0 24 24" fill="none" xmlns="http://www.w3.org/2000/svg">
<path fill-rule="evenodd" clip-rule="evenodd" d="M14.5859 3.37891C15.9432 3.78544 17.1651 4.50335 18.1699 5.4502L17.5273 7.70703C17.917 8.20794 18.2392 8.76305 18.4824 9.35938L20.7578 9.93066C20.9143 10.5953 21 11.2876 21 12C21 12.7123 20.9142 13.4048 20.7578 14.0693L18.4824 14.6406C18.2394 15.2367 17.9167 15.7912 17.5273 16.292L18.1699 18.5488C17.1652 19.4957 15.9441 20.2144 14.5869 20.6211L12.9521 18.9336C12.6407 18.976 12.3231 19 12 19C11.6759 19 11.3573 18.9762 11.0449 18.9336L9.41113 20.6201C8.05409 20.2131 6.83258 19.495 5.82812 18.5479L6.4707 16.291C6.08177 15.7905 5.75942 15.2362 5.5166 14.6406L3.24121 14.0693C3.08483 13.4048 3 12.7122 3 12C3.00001 11.2874 3.08465 10.5945 3.24121 9.92969L5.5166 9.3584C5.7595 8.76288 6.08173 8.20837 6.4707 7.70801L5.82812 5.45117C6.83247 4.50431 8.05435 3.78678 9.41113 3.37988L11.0459 5.06641C11.3579 5.02387 11.6763 5 12 5C12.3227 5 12.6401 5.02316 12.9512 5.06543L14.5859 3.37891ZM13.6689 5.76172L13.3174 6.12402L12.8164 6.05664C12.547 6.02004 12.2747 6 12 6C11.7255 6 11.4521 6.02061 11.1807 6.05762L10.6797 6.12598L10.3281 5.7627L9.13574 4.53223C8.34338 4.83619 7.61235 5.26265 6.96387 5.78906L7.43262 7.43457L7.57129 7.92188L7.25977 8.32129C6.92626 8.7503 6.65045 9.22622 6.44238 9.73633L6.25098 10.2051L5.75977 10.3281L4.10156 10.7441C4.03646 11.1537 4.00001 11.5727 4 12C4 12.4264 4.03657 12.8449 4.10156 13.2539L5.75977 13.6709L6.25098 13.7939L6.44238 14.2627C6.65025 14.7726 6.92707 15.2484 7.26074 15.6777L7.57129 16.0771L7.43262 16.5645L6.96387 18.21C7.6124 18.7367 8.34349 19.1627 9.13574 19.4668L10.3271 18.2383L10.6787 17.874L11.1797 17.9424C11.4511 17.9794 11.7249 18 12 18C12.2734 18 12.5459 17.9793 12.8174 17.9424L13.3184 17.875L13.6699 18.2383L14.8613 19.4678C15.6535 19.1639 16.3844 18.7378 17.0332 18.2109L16.5654 16.5654L16.4268 16.0781L16.7383 15.6777C17.0722 15.2482 17.3487 14.7728 17.5566 14.2627L17.748 13.7939L18.2393 13.6709L19.8965 13.2539C19.9619 12.8444 20 12.4262 20 12C20 11.5734 19.9619 11.1549 19.8965 10.7451L18.2393 10.3291L17.748 10.2061L17.5566 9.7373C17.3483 9.22631 17.072 8.75041 16.7383 8.32129L16.4268 7.9209L16.5654 7.43359L17.0332 5.78809C16.3844 5.26166 15.6537 4.83499 14.8613 4.53125L13.6689 5.76172ZM12 9C13.6568 9 14.9999 10.3432 15 12C15 13.6569 13.6569 15 12 15C10.3431 15 9 13.6569 9 12C9.0001 10.3432 10.3432 9 12 9ZM12 10C10.8955 10 10.0001 10.8955 10 12C10 13.1046 10.8954 14 12 14C13.1046 14 14 13.1046 14 12C13.9999 10.8955 13.1045 10 12 10Z" fill="#262626"/>
</svg>
