<svg width="24" height="24" viewBox="0 0 24 24" fill="none" xmlns="http://www.w3.org/2000/svg">
<path d="M3.88867 9.67578C7.35943 9.01044 10.167 10.3809 11.3262 11.292C11.4396 11.3812 11.5 11.5178 11.5 11.6621V20.5947C11.5 20.9881 11.0634 21.2322 10.7129 21.0537C8.46135 19.9066 5.80304 19.5617 4.10742 19.7314C3.79173 19.7629 3.50005 19.5243 3.5 19.207V10.1553C3.5001 9.92292 3.66046 9.71953 3.88867 9.67578ZM12.6738 11.292C13.833 10.3809 16.6406 9.01044 20.1113 9.67578C20.3395 9.71953 20.4999 9.92292 20.5 10.1553V19.207C20.4999 19.5243 20.2083 19.7629 19.8926 19.7314C18.197 19.5617 15.5386 19.9066 13.2871 21.0537C12.9366 21.2322 12.5 20.9881 12.5 20.5947V11.6621C12.5 11.5178 12.5604 11.3812 12.6738 11.292ZM12 2.5C14.0711 2.5 15.75 4.17893 15.75 6.25C15.75 8.32107 14.0711 10 12 10C9.92893 10 8.25 8.32107 8.25 6.25C8.25 4.17893 9.92893 2.5 12 2.5Z" fill="url(#paint0_radial_10421_4397)"/>
<defs>
<radialGradient id="paint0_radial_10421_4397" cx="0" cy="0" r="1" gradientUnits="userSpaceOnUse" gradientTransform="translate(12.0161 29.5736) rotate(-90) scale(16.498 15.0681)">
<stop stop-color="#007FA9"/>
<stop offset="1" stop-color="#262626"/>
</radialGradient>
</defs>
</svg>
