<svg width="24" height="24" viewBox="0 0 24 24" fill="none" xmlns="http://www.w3.org/2000/svg">
<path d="M14.5859 3.37891C15.9432 3.78544 17.1651 4.50335 18.1699 5.4502L17.5273 7.70703C17.917 8.20794 18.2392 8.76305 18.4824 9.35938L20.7578 9.93066C20.9143 10.5953 21 11.2876 21 12C21 12.7123 20.9142 13.4048 20.7578 14.0693L18.4824 14.6406C18.2394 15.2367 17.9167 15.7912 17.5273 16.292L18.1699 18.5488C17.1652 19.4957 15.9441 20.2144 14.5869 20.6211L12.9521 18.9336C12.6407 18.976 12.3231 19 12 19C11.6759 19 11.3573 18.9762 11.0449 18.9336L9.41113 20.6201C8.05409 20.2131 6.83258 19.495 5.82812 18.5479L6.4707 16.291C6.08177 15.7905 5.75942 15.2362 5.5166 14.6406L3.24121 14.0693C3.08483 13.4048 3 12.7122 3 12C3.00001 11.2874 3.08465 10.5945 3.24121 9.92969L5.5166 9.3584C5.7595 8.76288 6.08173 8.20837 6.4707 7.70801L5.82812 5.45117C6.83247 4.50431 8.05435 3.78678 9.41113 3.37988L11.0459 5.06641C11.3579 5.02387 11.6763 5 12 5C12.3227 5 12.6401 5.02316 12.9512 5.06543L14.5859 3.37891ZM12 9.5C10.6193 9.5 9.5 10.6193 9.5 12C9.5 13.3807 10.6193 14.5 12 14.5C13.3807 14.5 14.5 13.3807 14.5 12C14.5 10.6193 13.3807 9.5 12 9.5Z" fill="url(#paint0_radial_10421_4444)"/>
<defs>
<radialGradient id="paint0_radial_10421_4444" cx="0" cy="0" r="1" gradientUnits="userSpaceOnUse" gradientTransform="translate(12.017 28.4584) rotate(-90) scale(15.2828 15.9545)">
<stop stop-color="#007FA9"/>
<stop offset="1" stop-color="#262626"/>
</radialGradient>
</defs>
</svg>
