<svg width="24" height="24" viewBox="0 0 24 24" fill="none" xmlns="http://www.w3.org/2000/svg">
<mask id="path-1-inside-1_10421_4408" fill="white">
<path d="M3.88867 9.67578C7.35943 9.01044 10.167 10.3809 11.3262 11.292C11.4396 11.3812 11.5 11.5178 11.5 11.6621V20.5947C11.5 20.9881 11.0634 21.2322 10.7129 21.0537C8.46135 19.9066 5.80304 19.5617 4.10742 19.7314C3.79173 19.7629 3.50005 19.5243 3.5 19.207V10.1553C3.5001 9.92292 3.66046 9.71953 3.88867 9.67578ZM12.6738 11.292C13.833 10.3809 16.6406 9.01044 20.1113 9.67578C20.3395 9.71953 20.4999 9.92292 20.5 10.1553V19.207C20.4999 19.5243 20.2083 19.7629 19.8926 19.7314C18.197 19.5617 15.5386 19.9066 13.2871 21.0537C12.9366 21.2322 12.5 20.9881 12.5 20.5947V11.6621C12.5 11.5178 12.5604 11.3812 12.6738 11.292ZM12 2.5C14.0711 2.5 15.75 4.17893 15.75 6.25C15.75 8.32107 14.0711 10 12 10C9.92893 10 8.25 8.32107 8.25 6.25C8.25 4.17893 9.92893 2.5 12 2.5Z"/>
</mask>
<path d="M3.88867 9.67578L3.7004 8.69366L3.70038 8.69367L3.88867 9.67578ZM11.3262 11.292L11.9443 10.5059L11.9441 10.5058L11.3262 11.292ZM10.7129 21.0537L10.2589 21.9447L10.2591 21.9448L10.7129 21.0537ZM4.10742 19.7314L4.20649 20.7265L4.20704 20.7265L4.10742 19.7314ZM3.5 19.207H2.5V19.2072L3.5 19.207ZM3.5 10.1553L2.5 10.1549V10.1553H3.5ZM12.6738 11.292L12.0559 10.5058L12.0557 10.5059L12.6738 11.292ZM20.1113 9.67578L20.2996 8.69367L20.2996 8.69366L20.1113 9.67578ZM20.5 10.1553H21.5V10.1549L20.5 10.1553ZM20.5 19.207L21.5 19.2072V19.207H20.5ZM19.8926 19.7314L19.793 20.7265L19.7935 20.7265L19.8926 19.7314ZM13.2871 21.0537L13.7409 21.9448L13.7411 21.9447L13.2871 21.0537ZM3.88867 9.67578L4.07694 10.6579C7.20134 10.059 9.72198 11.3031 10.7082 12.0782L11.3262 11.292L11.9441 10.5058C10.612 9.4588 7.51753 7.96193 3.7004 8.69366L3.88867 9.67578ZM11.3262 11.292L10.7081 12.0781C10.5584 11.9604 10.5 11.7954 10.5 11.6621H11.5H12.5C12.5 11.2402 12.3208 10.802 11.9443 10.5059L11.3262 11.292ZM11.5 11.6621H10.5V20.5947H11.5H12.5V11.6621H11.5ZM11.5 20.5947H10.5C10.5 20.3927 10.6192 20.2408 10.7397 20.1716C10.8551 20.1053 11.0166 20.0861 11.1667 20.1626L10.7129 21.0537L10.2591 21.9448C11.2098 22.429 12.5 21.8064 12.5 20.5947H11.5ZM10.7129 21.0537L11.1669 20.1627C8.73521 18.9238 5.88338 18.5486 4.0078 18.7364L4.10742 19.7314L4.20704 20.7265C5.7227 20.5747 8.18749 20.8893 10.2589 21.9447L10.7129 21.0537ZM4.10742 19.7314L4.00835 18.7364C4.13019 18.7242 4.24549 18.7638 4.33238 18.8375C4.42284 18.9143 4.49997 19.0454 4.5 19.2069L3.5 19.207L2.5 19.2072C2.50016 20.1785 3.36651 20.8102 4.20649 20.7265L4.10742 19.7314ZM3.5 19.207H4.5V10.1553H3.5H2.5V19.207H3.5ZM3.5 10.1553L4.5 10.1557C4.49991 10.3789 4.34281 10.6069 4.07696 10.6579L3.88867 9.67578L3.70038 8.69367C2.97811 8.83214 2.50029 9.46691 2.5 10.1549L3.5 10.1553ZM12.6738 11.292L13.2918 12.0782C14.278 11.3031 16.7987 10.059 19.9231 10.6579L20.1113 9.67578L20.2996 8.69366C16.4825 7.96193 13.388 9.4588 12.0559 10.5058L12.6738 11.292ZM20.1113 9.67578L19.923 10.6579C19.6572 10.6069 19.5001 10.3789 19.5 10.1557L20.5 10.1553L21.5 10.1549C21.4997 9.46691 21.0219 8.83214 20.2996 8.69367L20.1113 9.67578ZM20.5 10.1553H19.5V19.207H20.5H21.5V10.1553H20.5ZM20.5 19.207L19.5 19.2069C19.5 19.0454 19.5772 18.9143 19.6676 18.8375C19.7545 18.7638 19.8698 18.7242 19.9916 18.7364L19.8926 19.7314L19.7935 20.7265C20.6335 20.8102 21.4998 20.1785 21.5 19.2072L20.5 19.207ZM19.8926 19.7314L19.9922 18.7364C18.1166 18.5486 15.2648 18.9238 12.8331 20.1627L13.2871 21.0537L13.7411 21.9447C15.8125 20.8893 18.2773 20.5747 19.793 20.7265L19.8926 19.7314ZM13.2871 21.0537L12.8333 20.1626C12.9834 20.0861 13.1449 20.1053 13.2603 20.1716C13.3808 20.2408 13.5 20.3927 13.5 20.5947H12.5H11.5C11.5 21.8064 12.7902 22.429 13.7409 21.9448L13.2871 21.0537ZM12.5 20.5947H13.5V11.6621H12.5H11.5V20.5947H12.5ZM12.5 11.6621H13.5C13.5 11.7954 13.4416 11.9604 13.2919 12.0781L12.6738 11.292L12.0557 10.5059C11.6792 10.802 11.5 11.2402 11.5 11.6621H12.5ZM12 2.5V3.5C13.5188 3.5 14.75 4.73122 14.75 6.25H15.75H16.75C16.75 3.62665 14.6234 1.5 12 1.5V2.5ZM15.75 6.25H14.75C14.75 7.76878 13.5188 9 12 9V10V11C14.6234 11 16.75 8.87335 16.75 6.25H15.75ZM12 10V9C10.4812 9 9.25 7.76878 9.25 6.25H8.25H7.25C7.25 8.87335 9.37665 11 12 11V10ZM8.25 6.25H9.25C9.25 4.73122 10.4812 3.5 12 3.5V2.5V1.5C9.37665 1.5 7.25 3.62665 7.25 6.25H8.25Z" fill="#262626" mask="url(#path-1-inside-1_10421_4408)"/>
</svg>
