<svg width="24" height="24" viewBox="0 0 24 24" fill="none" xmlns="http://www.w3.org/2000/svg">
<path fill-rule="evenodd" clip-rule="evenodd" d="M11.6602 4.13282C11.8518 3.95573 12.1482 3.95573 12.3398 4.13282L18.6611 9.70118C18.8766 9.89101 19 10.165 19 10.4522V19C19 19.5523 18.5523 20 18 20H6C5.44772 20 5 19.5523 5 19V10.4522C5.00001 10.165 5.12337 9.89101 5.33887 9.70118L11.6602 4.13282ZM6 10.4512V19H18V10.4512L12 5.16505L6 10.4512ZM14.375 16C14.7202 16 15 16.2798 15 16.625C15 16.9702 14.7202 17.25 14.375 17.25H9.625C9.27982 17.25 9 16.9702 9 16.625C9.00001 16.2798 9.27983 16 9.625 16H14.375Z" fill="#262626"/>
</svg>
