<svg width="24" height="24" viewBox="0 0 24 24" fill="none" xmlns="http://www.w3.org/2000/svg">
<path d="M12 16C12.5523 16 13 16.4477 13 17V20C13 20.5523 12.5523 21 12 21C11.4477 21 11 20.5523 11 20V17C11 16.4477 11.4477 16 12 16ZM7.75781 14.8281C8.14837 14.438 8.78148 14.4377 9.17188 14.8281C9.56227 15.2185 9.56202 15.8516 9.17188 16.2422L7.0498 18.3643C6.65925 18.7544 6.02614 18.7547 5.63574 18.3643C5.24534 17.9739 5.24559 17.3407 5.63574 16.9502L7.75781 14.8281ZM14.8281 14.8281C15.2185 14.4377 15.8516 14.438 16.2422 14.8281L18.3643 16.9502C18.7544 17.3407 18.7547 17.9739 18.3643 18.3643C17.9739 18.7547 17.3407 18.7544 16.9502 18.3643L14.8281 16.2422C14.438 15.8516 14.4377 15.2185 14.8281 14.8281ZM7 11C7.55228 11 8 11.4477 8 12C8 12.5523 7.55228 13 7 13H4C3.44772 13 3 12.5523 3 12C3 11.4477 3.44772 11 4 11H7ZM20 11C20.5523 11 21 11.4477 21 12C21 12.5523 20.5523 13 20 13H17C16.4477 13 16 12.5523 16 12C16 11.4477 16.4477 11 17 11H20ZM5.63574 5.63574C6.02614 5.24534 6.65925 5.24559 7.0498 5.63574L9.17188 7.75781C9.56202 8.14837 9.56227 8.78148 9.17188 9.17188C8.78148 9.56227 8.14837 9.56202 7.75781 9.17188L5.63574 7.0498C5.24559 6.65925 5.24534 6.02614 5.63574 5.63574ZM16.9502 5.63574C17.3407 5.24559 17.9739 5.24534 18.3643 5.63574C18.7547 6.02614 18.7544 6.65925 18.3643 7.0498L16.2422 9.17188C15.8516 9.56202 15.2185 9.56227 14.8281 9.17188C14.4377 8.78148 14.438 8.14837 14.8281 7.75781L16.9502 5.63574ZM12 3C12.5522 3.00007 13 3.44776 13 4V7C13 7.55224 12.5522 7.99993 12 8C11.4477 8 11 7.55228 11 7V4C11 3.44772 11.4477 3 12 3Z" fill="#262626"/>
</svg>
