<svg width="24" height="24" viewBox="0 0 24 24" fill="none" xmlns="http://www.w3.org/2000/svg">
<path d="M12 4C14.2091 4 16 5.79086 16 8V10H17L17.2041 10.0107C18.2128 10.113 19 10.9643 19 12V18L18.9893 18.2041C18.8938 19.1457 18.1457 19.8938 17.2041 19.9893L17 20H7L6.7959 19.9893C5.85435 19.8938 5.1062 19.1457 5.01074 18.2041L5 18V12C5 10.9643 5.78722 10.113 6.7959 10.0107L7 10H8V8C8 5.79086 9.79086 4 12 4ZM7 11C6.44772 11 6 11.4477 6 12V18C6 18.5523 6.44772 19 7 19H17C17.5523 19 18 18.5523 18 18V12C18 11.4477 17.5523 11 17 11H7ZM12 13.5C12.5523 13.5 13 13.9477 13 14.5C13 14.8698 12.7984 15.1912 12.5 15.3643V16.5C12.5 16.7761 12.2761 17 12 17C11.7239 17 11.5 16.7761 11.5 16.5V15.3643C11.2016 15.1912 11 14.8698 11 14.5C11 13.9477 11.4477 13.5 12 13.5ZM12 5C10.3431 5 9 6.34315 9 8V10H15V8C15 6.34315 13.6569 5 12 5Z" fill="#262626"/>
</svg>
