<svg width="24" height="24" viewBox="0 0 24 24" fill="none" xmlns="http://www.w3.org/2000/svg">
<path d="M11.786 4.1012C11.9219 4.03664 12.0799 4.03652 12.2157 4.1012L21.5526 8.54749C21.9319 8.72867 21.9321 9.26877 21.5526 9.44983L18.0009 11.1403V16.0006C18.0005 17.6572 15.314 19.0004 12.0009 19.0006C8.68804 19.0006 6.0023 17.6578 6.00085 16.0016V11.1403L2.4491 9.44983C2.06905 9.26886 2.06905 8.72846 2.4491 8.54749L11.786 4.1012ZM12.2157 13.8961L12.1102 13.9323C12.0384 13.9484 11.9634 13.9483 11.8915 13.9323L11.786 13.8961L7.00085 11.6168V16.0006L7.01257 16.1041C7.06944 16.3695 7.34936 16.8 8.20593 17.2281C9.12557 17.6876 10.4663 18.0006 12.0009 18.0006C13.5358 18.0005 14.8772 17.6869 15.7968 17.2272C16.7749 16.7378 17.0006 16.2462 17.0009 16.0006V11.6168L12.2157 13.8961ZM20.9999 14.1354C21.2986 14.3083 21.4998 14.6307 21.4999 15.0006C21.4999 15.5529 21.0522 16.0006 20.4999 16.0006C19.9476 16.0005 19.4999 15.5529 19.4999 15.0006C19.5 14.6308 19.7013 14.3083 19.9999 14.1354V11.316L20.9745 10.8551L20.9999 10.8424V14.1354ZM3.82605 8.99866L12.0009 12.8912L20.1747 8.99866L12.0009 5.1051L3.82605 8.99866Z" fill="#262626"/>
</svg>
