<svg width="24" height="24" viewBox="0 0 24 24" fill="none" xmlns="http://www.w3.org/2000/svg">
<path d="M11 19C11 19.5523 10.5523 20 10 20H5C4.44772 20 4 19.5523 4 19V9H11V19ZM20 19C20 19.5523 19.5523 20 19 20H14C13.4477 20 13 19.5523 13 19V9H20V19ZM7.5 13C7.22386 13 7 13.2239 7 13.5V17.5C7 17.7761 7.22386 18 7.5 18C7.77614 18 8 17.7761 8 17.5V13.5C8 13.2239 7.77614 13 7.5 13ZM16.5 13C16.2239 13 16 13.2239 16 13.5V17.5C16 17.7761 16.2239 18 16.5 18C16.7761 18 17 17.7761 17 17.5V13.5C17 13.2239 16.7761 13 16.5 13ZM10 5C10.5523 5 11 5.44772 11 6V8H4V6C4 5.44772 4.44772 5 5 5H10ZM19 5C19.5523 5 20 5.44772 20 6V8H13V6C13 5.44772 13.4477 5 14 5H19Z" fill="#262626"/>
</svg>
