<svg width="24" height="24" viewBox="0 0 24 24" fill="none" xmlns="http://www.w3.org/2000/svg">
<path d="M6 12C6.55228 12 7 12.4477 7 13V19C7 19.5523 6.55228 20 6 20H4C3.44772 20 3 19.5523 3 19V13C3 12.4477 3.44772 12 4 12H6ZM13 8C13.5523 8 14 8.44772 14 9V19C14 19.5523 13.5523 20 13 20H11C10.4477 20 10 19.5523 10 19V9C10 8.44772 10.4477 8 11 8H13ZM20 4C20.5523 4 21 4.44772 21 5V19C21 19.5523 20.5523 20 20 20H18C17.4477 20 17 19.5523 17 19V5C17 4.44772 17.4477 4 18 4H20Z" fill="#01AED9"/>
</svg>
