<svg width="18" height="18" viewBox="0 0 18 18" fill="none" xmlns="http://www.w3.org/2000/svg">
<path d="M9 0C13.9706 0 18 4.02944 18 9C18 13.9706 13.9706 18 9 18C4.02944 18 0 13.9706 0 9C0 4.02944 4.02944 0 9 0ZM9 1C4.58172 1 1 4.58172 1 9C1 13.4183 4.58172 17 9 17C13.4183 17 17 13.4183 17 9C17 4.58172 13.4183 1 9 1ZM9 12C9.41417 12.0001 9.75 12.3358 9.75 12.75C9.74992 13.1641 9.41411 13.4999 9 13.5C8.58589 13.4999 8.25008 13.1641 8.25 12.75C8.25 12.3358 8.58583 12.0001 9 12ZM9.17676 3.91016C9.75532 3.91022 10.2478 4.01503 10.6533 4.22461C11.0633 4.43423 11.3757 4.73517 11.5898 5.12695C11.8039 5.51426 11.9111 5.97476 11.9111 6.50781C11.9111 6.91785 11.8268 7.29631 11.6582 7.64258C11.4942 7.98427 11.2821 8.30575 11.0225 8.60645C10.7628 8.90714 10.4869 9.19441 10.1953 9.46777C9.94471 9.70016 9.76485 10 9.68945 10.2539C9.67616 10.2987 9.6636 10.3399 9.65234 10.3779C9.55301 10.7126 9.27581 10.9999 8.92676 11C8.57495 11 8.25545 10.713 8.26562 10.3613C8.26784 10.2857 8.27715 10.2105 8.2998 10.124C8.37727 9.84149 8.6071 9.58397 8.78027 9.35156C8.95343 9.11919 9.18368 8.85473 9.4707 8.55859C9.68025 8.34449 9.87181 8.14381 10.0449 7.95703C10.2226 7.7657 10.3663 7.56044 10.4756 7.3418C10.5849 7.11856 10.6396 6.85175 10.6396 6.54199C10.6396 6.22769 10.5826 5.95631 10.4688 5.72852C10.3594 5.5008 10.1951 5.32518 9.97656 5.20215C9.76248 5.07916 9.49555 5.01764 9.17676 5.01758C8.91257 5.01758 8.66168 5.06553 8.4248 5.16113C8.1879 5.25681 7.9964 5.40504 7.85059 5.60547C7.81216 5.6571 7.77861 5.71326 7.75 5.77344C7.60183 6.08501 7.34693 6.37787 7.00195 6.37793C6.64932 6.37768 6.35487 6.08424 6.44043 5.74219C6.5039 5.4892 6.60511 5.25885 6.74316 5.05176C6.9938 4.68271 7.33112 4.40003 7.75488 4.2041C8.17862 4.00824 8.65281 3.91016 9.17676 3.91016Z" fill="#262626"/>
</svg>
