<svg width="24" height="24" viewBox="0 0 24 24" fill="none" xmlns="http://www.w3.org/2000/svg">
<rect x="2" y="2" width="9" height="9" rx="4.5" fill="#8434FF"/>
<path d="M6 7C6 5.89543 6.89543 5 8 5H17C18.1046 5 19 5.89543 19 7V19C19 20.1046 18.1046 21 17 21H8C6.89543 21 6 20.1046 6 19V7Z" fill="#63E2FD"/>
<path d="M10.7422 5C10.9081 5.46932 11 5.97384 11 6.5C11 8.98528 8.98528 11 6.5 11C6.33093 11 6.16423 10.9889 6 10.9707V7C6 5.89543 6.89543 5 8 5H10.7422Z" fill="#0600FF"/>
<path d="M17 18H8V17H17V18ZM17 16H8V15H17V16ZM12 14H8V13H12V14Z" fill="white"/>
</svg>
