<svg width="24" height="24" viewBox="0 0 24 24" fill="none" xmlns="http://www.w3.org/2000/svg">
<path d="M5.5 7C5.5 5.34315 6.84315 4 8.5 4C10.1569 4 11.5 5.34315 11.5 7C11.5 8.65685 10.1569 10 8.5 10C6.84315 10 5.5 8.65685 5.5 7Z" fill="#8434FF"/>
<path d="M12.5 7C12.5 5.34315 13.8431 4 15.5 4C17.1569 4 18.5 5.34315 18.5 7C18.5 8.65685 17.1569 10 15.5 10C13.8431 10 12.5 8.65685 12.5 7Z" fill="#63E2FD"/>
<path d="M3.2169 14.5238C3.67443 12.4649 5.50059 11 7.60974 11H9.39019C11.4993 11 13.3255 12.4649 13.783 14.5238C14.4075 17.3341 12.2691 20 9.39019 20H7.60974C4.73087 20 2.59238 17.3341 3.2169 14.5238Z" fill="#8434FF"/>
<path d="M10.2169 14.5238C10.6744 12.4649 12.5006 11 14.6097 11H16.3902C18.4993 11 20.3255 12.4649 20.783 14.5238C21.4075 17.3341 19.2691 20 16.3902 20H14.6097C11.7309 20 9.59238 17.3341 10.2169 14.5238Z" fill="#63E2FD"/>
<path d="M11.9996 11.835C12.8816 12.4631 13.5342 13.4053 13.7828 14.5234C14.194 16.3738 13.4067 18.1606 11.9996 19.166C10.5929 18.1605 9.80622 16.3735 10.2174 14.5234C10.4659 13.4056 11.1179 12.4632 11.9996 11.835Z" fill="#0600FF"/>
<path d="M7.5 11.5H9.5L8.5 13.5L7.5 11.5Z" fill="white"/>
<path d="M14.5 11.5H16.5L15.5 13.5L14.5 11.5Z" fill="white"/>
</svg>
