<svg width="24" height="24" viewBox="0 0 24 24" fill="none" xmlns="http://www.w3.org/2000/svg">
<path d="M17 9C17 12.3137 14.3137 15 11 15H10C6.13401 15 3 11.866 3 8V3.46602C3 3.20864 3.20864 3 3.46602 3H11C14.3137 3 17 5.68629 17 9Z" fill="#63E2FD"/>
<path d="M7 15C7 11.6863 9.68629 9 13 9H14C17.866 9 21 12.134 21 16V20.534C21 20.7914 20.7914 21 20.534 21H13C9.68629 21 7 18.3137 7 15Z" fill="#8434FF"/>
<path d="M14 9C15.0592 9 16.063 9.23614 16.9629 9.65723C16.6355 12.6617 14.0916 15 11 15H10C8.94036 15 7.93633 14.7632 7.03613 14.3418C7.36393 11.3378 9.90874 9 13 9H14Z" fill="#0600FF"/>
<path d="M19 19H15V18H19V19ZM14 8H5V7H14V8ZM9 6H5V5H9V6Z" fill="white"/>
<rect x="10" y="16" width="9" height="1" fill="white"/>
</svg>
