<svg width="24" height="24" viewBox="0 0 24 24" fill="none" xmlns="http://www.w3.org/2000/svg">
<path d="M2 4C2 2.89543 2.89543 2 4 2H12C13.1046 2 14 2.89543 14 4V12C14 13.1046 13.1046 14 12 14H4C2.89543 14 2 13.1046 2 12V4Z" fill="#63E2FD"/>
<path d="M10 12C10 10.8954 10.8954 10 12 10H20C21.1046 10 22 10.8954 22 12V20C22 21.1046 21.1046 22 20 22H12C10.8954 22 10 21.1046 10 20V12Z" fill="#8434FF"/>
<path d="M8.33643 5.49902H10.9985V6.49902H10.2017C10.2095 7.09932 10.0338 7.83454 9.51416 8.55176C9.32014 8.81952 9.07954 9.08017 8.78857 9.33008C9.29662 9.57866 9.9046 9.81606 10.6323 10.0176L10.3647 10.9805C9.3608 10.7024 8.53799 10.3537 7.86963 9.97363C7.15587 10.3823 6.24891 10.7335 5.10693 10.9873L4.89014 10.0107C5.71232 9.82803 6.3809 9.59583 6.92432 9.33887C5.97065 8.57537 5.5213 7.75908 5.42139 7.11426L5.91553 7.03711L6.40967 6.96094C6.46911 7.34501 6.83028 8.07674 7.85889 8.79199C8.23273 8.51949 8.50711 8.23738 8.70459 7.96484C9.09958 7.41951 9.20946 6.88936 9.20166 6.49902H4.99854V5.49902H7.28857L7.021 4.64844L7.9751 4.34961L8.33643 5.49902Z" fill="white"/>
<path d="M14 12C14 13.1046 13.1046 14 12 14H10V12C10 10.8954 10.8954 10 12 10H14V12Z" fill="#0600FF"/>
<path d="M16.4443 13.2803L18.9443 18.2803L18.0498 18.7275L17.1885 17.0039H14.8057L13.9443 18.7275L13.0498 18.2803L15.5498 13.2803H16.4443ZM15.3057 16.0039H16.6885L15.9971 14.6221L15.3057 16.0039Z" fill="white"/>
</svg>
