<svg width="24" height="24" viewBox="0 0 24 24" fill="none" xmlns="http://www.w3.org/2000/svg">
<rect width="4" height="19" rx="2" transform="matrix(-0.707107 0.707107 0.707107 0.707107 6.06787 4.45703)" fill="#8434FF"/>
<path d="M17.8632 3.26803C16.069 2.56491 13.9504 2.93827 12.5006 4.38807C11.0509 5.83777 10.6783 7.95589 11.3812 9.75007L4.72238 16.4089C3.94133 17.1899 3.94133 18.4563 4.72238 19.2373C5.50343 20.0184 6.76976 20.0184 7.55081 19.2373L14.2096 12.5785C16.0038 13.2814 18.1219 12.9088 19.5716 11.4591C21.0214 10.0093 21.3948 7.89071 20.6917 6.09645L17.9958 8.7923L15.1674 5.96387L17.8632 3.26803Z" fill="#63E2FD"/>
<circle cx="14.6802" cy="9.28008" r="1.25" transform="rotate(-135 14.6802 9.28008)" fill="white"/>
<path d="M14.1992 12.5879L11.3711 15.417L8.54199 12.5879L11.3711 9.75977L14.1992 12.5879Z" fill="#0600FF"/>
</svg>
